<?xml version="1.0" encoding="UTF-8"?>
<svg width="32px" height="41px" viewBox="0 0 32 41" version="1.1" xmlns="http://www.w3.org/2000/svg" xmlns:xlink="http://www.w3.org/1999/xlink">
    <!-- Generator: Sketch 63.1 (92452) - https://sketch.com -->
    <title>app</title>
    <desc>Created with Sketch.</desc>
    <g id="Page-3" stroke="none" stroke-width="1" fill="none" fill-rule="evenodd">
        <g id="Home" transform="translate(-788.000000, -1281.000000)" fill="#81AF85" fill-rule="nonzero">
            <g id="FEATURES" transform="translate(-145.000000, 1049.000000)">
                <g id="Group-6" transform="translate(552.000000, 232.000000)">
                    <g id="LIST" transform="translate(378.000000, 0.000000)">
                        <g id="1">
                            <g id="app" transform="translate(3.000000, 0.715047)">
                                <path d="M25.2757504,14.9121497 L24.3902439,15.8516159 L28.4173781,19.4348446 C29.3654315,20.2814158 29.9058631,21.474232 29.9061914,22.7242511 L29.9061914,38.3267838 L31.2195122,38.3267838 L31.2195122,22.7242511 C31.2178706,21.1165146 30.5231238,19.5833491 29.3033771,18.495219 L25.2757504,14.9121497 Z" id="Path"></path>
                                <path d="M19.8288165,0.278003313 L3.19819622,0.278003313 C1.43279191,0.280279735 0.00223875782,1.73491388 0,3.53003583 L0,36.050361 C0.00223875782,37.845483 1.43279191,39.3001171 3.19819622,39.3023936 L19.1891773,39.3023936 L19.1891773,38.1388163 C19.186139,35.2088976 20.039098,32.3433691 21.6402749,29.9072716 C21.8097793,29.6490602 21.7757185,29.305483 21.56032,29.0864586 L17.0828453,24.5336131 C16.6689987,24.1123122 16.4496024,23.5329626 16.4785461,22.9383285 C16.5076497,22.3433692 16.7825347,21.7892228 17.2350794,21.4116618 C18.1067478,20.7341009 19.3394925,20.8308488 20.0987443,21.6358895 L26.4126233,28.0562147 L27.3170732,27.1365399 L23.0270128,22.7729627 L23.0270128,3.53003583 C23.024774,1.73491388 21.5942209,0.280279735 19.8288165,0.278003313 Z M21.7477343,21.4721497 L21.0031942,20.7150765 C19.7760463,19.4402797 17.8024394,19.3074342 16.4208187,20.407109 C15.6900308,21.0178407 15.2466009,21.9144261 15.200387,22.8755643 C15.154333,23.8365399 15.5093327,24.7726374 16.1783954,25.4532879 L20.2912757,29.6355643 C18.7574208,32.1488976 17.9348447,35.043857 17.9143763,38.0015805 L3.19819622,38.0015805 C2.13863383,38.0015805 1.27927849,37.1277594 1.27927849,36.050361 L1.27927849,34.0991415 L17.2702596,34.0991415 L17.2702596,32.7983285 L1.27927849,32.7983285 L1.27927849,5.48125535 L21.7477343,5.48125535 L21.7477343,21.4721497 Z M21.7477343,4.18044234 L1.27927849,4.18044234 L1.27927849,3.53003583 C1.27927849,2.45263748 2.13863383,1.57881632 3.19819622,1.57881632 L19.8288165,1.57881632 C20.8883789,1.57881632 21.7477343,2.45263748 21.7477343,3.53003583 L21.7477343,4.18044234 Z" id="Shape"></path>
                                <path d="M4.14634146,11.9853204 L6.58536585,11.9853204 C7.25899391,11.9853204 7.80487805,11.4394362 7.80487805,10.7658082 L7.80487805,8.3267838 C7.80487805,7.65315574 7.25899391,7.10727161 6.58536585,7.10727161 L4.14634146,7.10727161 C3.4727134,7.10727161 2.92682927,7.65315574 2.92682927,8.3267838 L2.92682927,10.7658082 C2.92682927,11.4394362 3.4727134,11.9853204 4.14634146,11.9853204 Z M4.14634146,8.3267838 L6.58536585,8.3267838 L6.58536585,10.7658082 L4.14634146,10.7658082 L4.14634146,8.3267838 Z" id="Shape"></path>
                                <path d="M10,11.9853204 L12.4390244,11.9853204 C13.1126524,11.9853204 13.6585366,11.4394362 13.6585366,10.7658082 L13.6585366,8.3267838 C13.6585366,7.65315574 13.1126524,7.10727161 12.4390244,7.10727161 L10,7.10727161 C9.32637194,7.10727161 8.7804878,7.65315574 8.7804878,8.3267838 L8.7804878,10.7658082 C8.7804878,11.4394362 9.32637194,11.9853204 10,11.9853204 Z M10,8.3267838 L12.4390244,8.3267838 L12.4390244,10.7658082 L10,10.7658082 L10,8.3267838 Z" id="Shape"></path>
                                <path d="M16.8292683,11.9853204 L19.2682927,11.9853204 C19.9419207,11.9853204 20.4878049,11.4394362 20.4878049,10.7658082 L20.4878049,8.3267838 C20.4878049,7.65315574 19.9419207,7.10727161 19.2682927,7.10727161 L16.8292683,7.10727161 C16.1556402,7.10727161 15.6097561,7.65315574 15.6097561,8.3267838 L15.6097561,10.7658082 C15.6097561,11.4394362 16.1556402,11.9853204 16.8292683,11.9853204 Z M16.8292683,8.3267838 L19.2682927,8.3267838 L19.2682927,10.7658082 L16.8292683,10.7658082 L16.8292683,8.3267838 Z" id="Shape"></path>
                                <path d="M4.14634146,17.8389789 L6.58536585,17.8389789 C7.25899391,17.8389789 7.80487805,17.2930948 7.80487805,16.6194667 L7.80487805,14.1804423 C7.80487805,13.5068143 7.25899391,12.9609301 6.58536585,12.9609301 L4.14634146,12.9609301 C3.4727134,12.9609301 2.92682927,13.5068143 2.92682927,14.1804423 L2.92682927,16.6194667 C2.92682927,17.2930948 3.4727134,17.8389789 4.14634146,17.8389789 Z M4.14634146,14.1804423 L6.58536585,14.1804423 L6.58536585,16.6194667 L4.14634146,16.6194667 L4.14634146,14.1804423 Z" id="Shape"></path>
                                <path d="M4.14634146,24.6682472 L6.58536585,24.6682472 C7.25899391,24.6682472 7.80487805,24.1223631 7.80487805,23.448735 L7.80487805,21.0097106 C7.80487805,20.3360826 7.25899391,19.7901984 6.58536585,19.7901984 L4.14634146,19.7901984 C3.4727134,19.7901984 2.92682927,20.3360826 2.92682927,21.0097106 L2.92682927,23.448735 C2.92682927,24.1223631 3.4727134,24.6682472 4.14634146,24.6682472 Z M4.14634146,21.0097106 L6.58536585,21.0097106 L6.58536585,23.448735 L4.14634146,23.448735 L4.14634146,21.0097106 Z" id="Shape"></path>
                                <path d="M10,17.8389789 L12.4390244,17.8389789 C13.1126524,17.8389789 13.6585366,17.2930948 13.6585366,16.6194667 L13.6585366,14.1804423 C13.6585366,13.5068143 13.1126524,12.9609301 12.4390244,12.9609301 L10,12.9609301 C9.32637194,12.9609301 8.7804878,13.5068143 8.7804878,14.1804423 L8.7804878,16.6194667 C8.7804878,17.2930948 9.32637194,17.8389789 10,17.8389789 Z M10,14.1804423 L12.4390244,14.1804423 L12.4390244,16.6194667 L10,16.6194667 L10,14.1804423 Z" id="Shape"></path>
                                <path d="M16.8292683,17.8389789 L19.2682927,17.8389789 C19.9419207,17.8389789 20.4878049,17.2930948 20.4878049,16.6194667 L20.4878049,14.1804423 C20.4878049,13.5068143 19.9419207,12.9609301 19.2682927,12.9609301 L16.8292683,12.9609301 C16.1556402,12.9609301 15.6097561,13.5068143 15.6097561,14.1804423 L15.6097561,16.6194667 C15.6097561,17.2930948 16.1556402,17.8389789 16.8292683,17.8389789 Z M16.8292683,14.1804423 L19.2682927,14.1804423 L19.2682927,16.6194667 L16.8292683,16.6194667 L16.8292683,14.1804423 Z" id="Shape"></path>
                                <path d="M10,24.6682472 L12.4390244,24.6682472 C13.1126524,24.6682472 13.6585366,24.1223631 13.6585366,23.448735 L13.6585366,21.0097106 C13.6585366,20.3360826 13.1126524,19.7901984 12.4390244,19.7901984 L10,19.7901984 C9.32637194,19.7901984 8.7804878,20.3360826 8.7804878,21.0097106 L8.7804878,23.448735 C8.7804878,24.1223631 9.32637194,24.6682472 10,24.6682472 Z M10,21.0097106 L12.4390244,21.0097106 L12.4390244,23.448735 L10,23.448735 L10,21.0097106 Z" id="Shape"></path>
                                <path d="M4.14634146,31.4975155 L6.58536585,31.4975155 C7.25899391,31.4975155 7.80487805,30.9516314 7.80487805,30.2780033 L7.80487805,27.8389789 C7.80487805,27.1653509 7.25899391,26.6194667 6.58536585,26.6194667 L4.14634146,26.6194667 C3.4727134,26.6194667 2.92682927,27.1653509 2.92682927,27.8389789 L2.92682927,30.2780033 C2.92682927,30.9516314 3.4727134,31.4975155 4.14634146,31.4975155 Z M4.14634146,27.8389789 L6.58536585,27.8389789 L6.58536585,30.2780033 L4.14634146,30.2780033 L4.14634146,27.8389789 Z" id="Shape"></path>
                                <path d="M10,31.4975155 L12.4390244,31.4975155 C13.1126524,31.4975155 13.6585366,30.9516314 13.6585366,30.2780033 L13.6585366,27.8389789 C13.6585366,27.1653509 13.1126524,26.6194667 12.4390244,26.6194667 L10,26.6194667 C9.32637194,26.6194667 8.7804878,27.1653509 8.7804878,27.8389789 L8.7804878,30.2780033 C8.7804878,30.9516314 9.32637194,31.4975155 10,31.4975155 Z M10,27.8389789 L12.4390244,27.8389789 L12.4390244,30.2780033 L10,30.2780033 L10,27.8389789 Z" id="Shape"></path>
                                <polygon id="Path" points="10.7317073 35.3999545 11.7073171 35.3999545 11.7073171 36.3755643 10.7317073 36.3755643"></polygon>
                            </g>
                        </g>
                    </g>
                </g>
            </g>
        </g>
    </g>
</svg>