<?xml version="1.0" encoding="UTF-8"?>
<svg width="29px" height="35px" viewBox="0 0 29 35" version="1.1" xmlns="http://www.w3.org/2000/svg" xmlns:xlink="http://www.w3.org/1999/xlink">
    <!-- Generator: Sketch 63.1 (92452) - https://sketch.com -->
    <title>best</title>
    <desc>Created with Sketch.</desc>
    <g id="Page-3" stroke="none" stroke-width="1" fill="none" fill-rule="evenodd">
        <g id="Home" transform="translate(-1166.000000, -1412.000000)" fill="#81AF85" fill-rule="nonzero">
            <g id="FEATURES" transform="translate(-145.000000, 1049.000000)">
                <g id="Group-6" transform="translate(552.000000, 363.000000)">
                    <g id="LIST" transform="translate(759.000000, 0.000000)">
                        <g id="1">
                            <g id="best">
                                <path d="M28.0587207,30.1683594 L22.1657324,19.9613477 C24.3457812,17.8477441 25.703125,14.8901758 25.703125,11.6210938 C25.703125,5.21322266 20.4899707,0 14.0820312,0 C7.6740918,0 2.4609375,5.21322266 2.4609375,11.6210938 C2.4609375,14.8901758 3.81828125,17.8477441 5.99839844,19.961416 L0.105341797,30.1683594 C-0.0329492188,30.407959 -0.0132617187,30.7073047 0.1553125,30.9266699 C0.323818359,31.1459668 0.607988281,31.2420801 0.875205078,31.1702344 L5.41795898,29.9463281 L6.62942383,34.4924316 C6.7006543,34.7597852 6.9259668,34.9578223 7.20029297,34.9941211 C7.23037109,34.9980859 7.26038086,35.0000684 7.29018555,35.0000684 C7.53204102,35.0000684 7.75878906,34.8715527 7.88197266,34.6582715 L14.0820312,23.9193555 L20.2820898,34.6582031 C20.4052734,34.8715527 20.6320898,35.0000684 20.873877,35.0000684 C20.9036816,35.0000684 20.9336914,34.9980176 20.9637695,34.9940527 C21.2380273,34.9577539 21.4634082,34.7597168 21.5346387,34.4923633 L22.7461035,29.9462598 L27.2889258,31.170166 C27.5562109,31.2422168 27.8402441,31.1459668 28.0088184,30.9266016 C28.1773926,30.7073047 28.1970801,30.407959 28.0587207,30.1683594 Z M3.828125,11.6210938 C3.828125,5.96708984 8.42802734,1.3671875 14.0820312,1.3671875 C19.7360352,1.3671875 24.3359375,5.96708984 24.3359375,11.6210938 C24.3359375,17.2750977 19.7360352,21.875 14.0820312,21.875 C8.42802734,21.875 3.828125,17.2750977 3.828125,11.6210938 Z M7.52472656,32.5426172 L6.56256836,28.9319434 C6.51581055,28.7564648 6.40110352,28.6067578 6.24380859,28.5159766 C6.08651367,28.425127 5.89961914,28.4006543 5.72414063,28.4478906 L2.11613281,29.4199609 L7.05311523,20.8689551 C8.71800781,22.1374316 10.7338574,22.9675879 12.9274414,23.1849707 L7.52472656,32.5426172 Z M22.4399219,28.4478223 C22.2644434,28.4005859 22.0775488,28.4250586 21.9202539,28.5159082 C21.762959,28.6067578 21.648252,28.7563965 21.6014941,28.931875 L20.6393359,32.5425488 L15.2366211,23.184834 C17.4302051,22.9674512 19.4460547,22.1372949 21.1109473,20.8688184 L26.0478613,29.4198926 L22.4399219,28.4478223 Z" id="XMLID_215_"></path>
                                <path d="M9.79945312,10.2271777 C9.6537793,10.675957 9.77320313,11.1592578 10.1111719,11.4884766 L11.204375,12.553584 L10.9467285,14.0579004 C10.8670898,14.5229492 11.0548047,14.9840332 11.4365918,15.2612988 C11.6522656,15.4179102 11.9044434,15.4974121 12.1583984,15.4974121 C12.354043,15.4974121 12.5507129,15.4501758 12.7324121,15.3546094 L14.083125,14.6440137 L15.434248,15.3538574 C15.8519238,15.573291 16.3484863,15.537334 16.7300684,15.2598633 C17.1117188,14.9824609 17.2991602,14.5212402 17.219248,14.0562598 L16.9608496,12.5520117 L18.0535059,11.4863574 C18.3912695,11.1569336 18.5104199,10.6735645 18.364541,10.2249219 C18.2185938,9.7762793 17.8379004,9.45546875 17.3710059,9.38772461 L15.8605371,9.16863281 L15.1847363,7.80014648 C14.9758301,7.37713867 14.5531641,7.11450195 14.0814844,7.11450195 C14.081416,7.11450195 14.0812793,7.11450195 14.0811426,7.11450195 C13.6093945,7.11463867 13.1866602,7.37754883 12.9778906,7.80069336 L12.3028418,9.16952148 L10.7925098,9.38943359 C10.3256836,9.45751953 9.94512695,9.7784668 9.79945312,10.2271777 L9.79945312,10.2271777 Z M12.8555273,10.4707422 C13.0781738,10.4383398 13.2706055,10.2984082 13.3701367,10.0966797 L14.0816211,8.65402344 L14.7939258,10.0963379 C14.8935938,10.2980664 15.0860937,10.4378613 15.3087402,10.470127 L16.9007617,10.7010449 L15.7491797,11.8241895 C15.588125,11.9812793 15.5146387,12.2075488 15.5527148,12.4293066 L15.8250586,14.0146973 L14.4009961,13.2665039 C14.2018652,13.1618457 13.9639062,13.1619141 13.7647754,13.2666406 L12.341123,14.0155859 L12.6126465,12.4300586 C12.6506543,12.2083008 12.5770312,11.9820313 12.4159082,11.8250098 L11.2637109,10.7024805 L12.8555273,10.4707422 Z" id="XMLID_885_"></path>
                                <path d="M14.0820313,20.234375 C18.8314355,20.234375 22.6953125,16.370498 22.6953125,11.6210937 C22.6953125,8.12047852 20.6048828,4.99467773 17.369707,3.65770508 C17.0205273,3.51333008 16.6209668,3.67944336 16.4768652,4.02834961 C16.3326953,4.37725586 16.4986035,4.77702148 16.8475098,4.92119141 C19.569375,6.04604492 21.328125,8.6759668 21.328125,11.6210937 C21.328125,15.6166309 18.0775684,18.8671875 14.0820313,18.8671875 C10.0864941,18.8671875 6.8359375,15.6166309 6.8359375,11.6210937 C6.8359375,8.66892578 8.60042969,6.03667969 11.3311816,4.91517578 C11.6804297,4.77175781 11.8472949,4.37233398 11.703877,4.0231543 C11.5603906,3.67390625 11.1611035,3.50710938 10.8118555,3.65045898 C7.56601563,4.98353516 5.46875,8.11213867 5.46875,11.6210937 C5.46875,16.370498 9.33269531,20.234375 14.0820313,20.234375 L14.0820313,20.234375 Z" id="XMLID_887_"></path>
                                <path d="M14.090918,4.375 C14.2707031,4.375 14.4470703,4.30185547 14.5742188,4.17470703 C14.7013672,4.04755859 14.7745117,3.87119141 14.7745117,3.69140625 C14.7745117,3.51162109 14.7013672,3.33525391 14.5742188,3.20810547 C14.4470703,3.08095703 14.2707031,3.0078125 14.090918,3.0078125 C13.9111328,3.0078125 13.7347656,3.08095703 13.6076172,3.20810547 C13.4797852,3.33525391 13.4073242,3.51162109 13.4073242,3.69140625 C13.4073242,3.87119141 13.4797852,4.04755859 13.6076172,4.17470703 C13.7347656,4.30185547 13.9111328,4.375 14.090918,4.375 Z" id="XMLID_888_"></path>
                            </g>
                        </g>
                    </g>
                </g>
            </g>
        </g>
    </g>
</svg>