<?xml version="1.0" encoding="UTF-8"?>
<svg width="32px" height="35px" viewBox="0 0 32 35" version="1.1" xmlns="http://www.w3.org/2000/svg" xmlns:xlink="http://www.w3.org/1999/xlink">
    <!-- Generator: Sketch 63.1 (92452) - https://sketch.com -->
    <title>bill</title>
    <desc>Created with Sketch.</desc>
    <g id="Page-3" stroke="none" stroke-width="1" fill="none" fill-rule="evenodd">
        <g id="Home" transform="translate(-1165.000000, -1288.000000)" fill="#81AF85" fill-rule="nonzero">
            <g id="FEATURES" transform="translate(-145.000000, 1049.000000)">
                <g id="Group-6" transform="translate(552.000000, 232.000000)">
                    <g id="LIST" transform="translate(758.000000, 6.000000)">
                        <g id="1">
                            <g id="bill" transform="translate(0.000000, 1.000000)">
                                <path d="M29.2885976,0 L8.85464431,0 C7.68527439,0 6.73387195,0.951402439 6.73387195,2.12077236 L6.73387195,6.86668699 C2.85755081,7.97601626 0.0120934959,11.5516362 0.0120934959,15.7794512 C0.0120934959,20.0072663 2.85747967,23.5828862 6.73387195,24.6922154 L6.73387195,32.8576728 C6.73387195,34.0270427 7.68527439,34.9784451 8.85464431,34.9784451 L25.5531301,34.9784451 C25.75125,34.9784451 25.941189,34.8997663 26.0813313,34.7596951 L31.1905488,29.6504065 C31.3306199,29.5103354 31.4092988,29.3203252 31.4092988,29.1222053 L31.4092988,2.12077236 C31.4092988,0.951402439 30.4579675,0 29.2885976,0 Z M8.85464431,1.49390244 L29.2885976,1.49390244 C29.634187,1.49390244 29.9153963,1.77511179 29.9153963,2.12077236 L29.9153963,4.37507114 L8.22777439,4.37507114 L8.22777439,2.12077236 C8.22777439,1.77511179 8.50898374,1.49390244 8.85464431,1.49390244 Z M1.50599593,15.7793801 C1.50599593,11.492378 4.99368902,8.00468496 9.28069106,8.00468496 C13.5676931,8.00468496 17.0553862,11.492378 17.0553862,15.7793801 C17.0553862,20.0663821 13.5676931,23.5541463 9.28069106,23.5541463 C4.99368902,23.5541463 1.50599593,20.0663821 1.50599593,15.7793801 Z M8.22756098,32.8576016 L8.22756098,24.9878659 C8.5735061,25.0271341 8.92471545,25.0480488 9.2807622,25.0480488 C12.0647561,25.0480488 14.5657622,23.8140142 16.2661789,21.8644715 L20.8429268,21.8644715 C21.2554573,21.8644715 21.589878,21.5300508 21.589878,21.1175203 C21.589878,20.7049898 21.2554573,20.3705691 20.8429268,20.3705691 L17.3300508,20.3705691 C17.9797561,19.2359146 18.3959858,17.9515142 18.5140752,16.5830285 L20.8428557,16.5830285 C21.2553862,16.5830285 21.5898069,16.2486077 21.5898069,15.8360772 C21.5898069,15.4235467 21.2553862,15.089126 20.8428557,15.089126 L18.5235366,15.089126 C18.4225203,13.7236992 18.0241463,12.4397967 17.393435,11.3016565 L20.8427846,11.3016565 C21.255315,11.3016565 21.5897358,10.9672358 21.5897358,10.5547053 C21.5897358,10.1421748 21.255315,9.80775407 20.8427846,9.80775407 L16.3629268,9.80775407 C14.6614431,7.7929065 12.1181098,6.51071138 9.28054878,6.51071138 C8.92450203,6.51071138 8.57329268,6.53162602 8.22756098,6.57089431 L8.22756098,5.86897358 L29.9151829,5.86897358 L29.9151829,28.3751118 L26.9267378,28.3751118 C25.7572967,28.3751118 24.8060366,29.3265142 24.8060366,30.495813 L24.8060366,33.4844004 L8.85464431,33.4844004 C8.50898374,33.4844004 8.22756098,33.2032622 8.22756098,32.8576016 Z M26.3001524,32.427998 L26.3001524,30.4958841 C26.3001524,30.1502236 26.5813618,29.8690854 26.9269512,29.8690854 L28.859065,29.8690854 L26.3001524,32.427998 Z" id="Shape"></path>
                                <path d="M23.7776626,11.3016565 L26.258252,11.3016565 C26.6707825,11.3016565 27.0052033,10.9672358 27.0052033,10.5547053 C27.0052033,10.1421748 26.6707825,9.80775407 26.258252,9.80775407 L23.7776626,9.80775407 C23.3651321,9.80775407 23.0307114,10.1421748 23.0307114,10.5547053 C23.0307114,10.9672358 23.3651321,11.3016565 23.7776626,11.3016565 Z" id="Path"></path>
                                <path d="M23.7776626,16.5830285 L26.258252,16.5830285 C26.6707825,16.5830285 27.0052033,16.2486077 27.0052033,15.8360772 C27.0052033,15.4235467 26.6707825,15.089126 26.258252,15.089126 L23.7776626,15.089126 C23.3651321,15.089126 23.0307114,15.4235467 23.0307114,15.8360772 C23.0307114,16.2486077 23.3651321,16.5830285 23.7776626,16.5830285 Z" id="Path"></path>
                                <path d="M23.7776626,21.8644715 L26.258252,21.8644715 C26.6707825,21.8644715 27.0052033,21.5300508 27.0052033,21.1175203 C27.0052033,20.7049898 26.6707825,20.3705691 26.258252,20.3705691 L23.7776626,20.3705691 C23.3651321,20.3705691 23.0307114,20.7049898 23.0307114,21.1175203 C23.0307114,21.5300508 23.3651321,21.8644715 23.7776626,21.8644715 Z" id="Path"></path>
                                <path d="M26.258252,27.1458435 C26.6707825,27.1458435 27.0052033,26.8114228 27.0052033,26.3988923 C27.0052033,25.9863618 26.6707825,25.6519411 26.258252,25.6519411 L19.2707012,25.6519411 C18.8581707,25.6519411 18.52375,25.9863618 18.52375,26.3988923 C18.52375,26.8114228 18.8581707,27.1458435 19.2707012,27.1458435 L26.258252,27.1458435 Z" id="Path"></path>
                                <path d="M15.0800203,12.0113313 L14.1687398,11.1000508 C13.923313,10.8546951 13.5970732,10.7195325 13.2499898,10.7195325 C12.9029065,10.7195325 12.5766667,10.8546951 12.3312398,11.1000508 L7.55146341,15.8798272 L6.23021341,14.5585772 C5.98485772,14.3132927 5.65854675,14.1781301 5.31153455,14.1781301 C4.96452236,14.1781301 4.63821138,14.3132927 4.39285569,14.5586484 L3.48136179,15.4700711 C2.97485772,15.9766463 2.97485772,16.8009248 3.48143293,17.3075 L6.63264228,20.4586382 C6.87806911,20.7041362 7.20438008,20.8392988 7.55146341,20.8392988 C7.55146341,20.8392988 7.55153455,20.8392988 7.55153455,20.8392988 C7.89854675,20.8392988 8.22485772,20.7041362 8.47014228,20.4587805 L15.0800915,13.8488313 C15.5865955,13.3422561 15.5865955,12.5179065 15.0800203,12.0113313 Z M7.55139228,19.2647256 L4.67534553,16.38875 L5.31146341,15.7526321 L7.02319106,17.4643598 C7.31492886,17.7560976 7.78785569,17.7560976 8.0795935,17.4643598 L13.2499898,12.2939634 L13.8861077,12.9300813 L7.55139228,19.2647256 Z" id="Shape"></path>
                            </g>
                        </g>
                    </g>
                </g>
            </g>
        </g>
    </g>
</svg>