<?xml version="1.0" encoding="UTF-8"?>
<svg width="35px" height="35px" viewBox="0 0 35 35" version="1.1" xmlns="http://www.w3.org/2000/svg" xmlns:xlink="http://www.w3.org/1999/xlink">
    <!-- Generator: Sketch 63.1 (92452) - https://sketch.com -->
    <title>discount</title>
    <desc>Created with Sketch.</desc>
    <g id="Page-3" stroke="none" stroke-width="1" fill="none" fill-rule="evenodd">
        <g id="Home" transform="translate(-408.000000, -1161.000000)" fill="#81AF85" fill-rule="nonzero">
            <g id="FEATURES" transform="translate(-145.000000, 1049.000000)">
                <g id="Group-6" transform="translate(552.000000, 111.000000)">
                    <g id="LIST">
                        <g id="1">
                            <g id="discount" transform="translate(1.000000, 1.000000)">
                                <path d="M34.750328,25.1848221 C34.101181,23.6662292 32.3727035,22.9919815 30.8808136,23.4897232 L24.6710587,25.5594635 C24.6531677,25.3033829 24.6029663,25.0481033 24.5196533,24.7981644 C24.2598343,24.0187073 23.7118912,23.3869171 22.9767609,23.0194855 L14.4734954,18.7678528 C13.3234024,18.1926727 12.0085526,18.0703735 10.7722092,18.4236527 L8.23516846,19.1486359 C8.008194,17.6746369 6.73152922,16.5427017 5.19504549,16.5427017 L1.02539062,16.5427017 C0.459022539,16.5427017 -3.88578059e-15,17.0017243 -3.88578059e-15,17.5680924 L-3.88578059e-15,31.9232941 C-3.88578059e-15,32.4893952 0.459022539,32.9486847 1.02539062,32.9486847 L7.24582674,32.9486847 C7.81219482,32.9486847 8.27121736,32.4893952 8.27121736,31.9232941 L8.27121736,31.3734818 L13.5725403,34.0240097 C15.9456253,35.2096176 18.7739945,35.3487396 21.3318634,34.2512512 L33.1345368,29.2228317 C34.6961212,28.5541916 35.4200363,26.7469406 34.750328,25.1848221 L34.750328,25.1848221 Z M6.22043611,30.8979035 L2.05078125,30.8979035 L2.05078125,18.593483 L5.1953125,18.593483 C5.76061247,18.593483 6.22043611,19.0533066 6.22043611,19.6188736 L6.22043611,30.8979035 Z M32.3291779,27.3370743 L20.5257034,32.3657608 C18.5542297,33.2114411 16.3576507,33.1230545 14.4892502,32.1895218 L8.27121736,29.0807724 L8.27121736,21.2709808 L11.33564,20.3956604 C12.077446,20.1833725 12.8662491,20.2568054 13.5565186,20.6020737 L22.0597839,24.8537064 C22.5655365,25.1065827 22.7714157,25.7236862 22.5185394,26.2297058 C22.2605896,26.7453385 21.6400146,26.9370651 21.14254,26.6881943 L16.0692596,24.1516877 C14.774971,23.5044098 13.1826782,23.8576889 12.2835922,24.9914932 C11.9316483,25.4350281 12.0058822,26.0801697 12.4496842,26.4318466 C12.893219,26.7837906 13.5383606,26.7095566 13.8903045,26.2657547 C14.1899109,25.8879089 14.7204971,25.7701492 15.1520157,25.9859085 L20.2252961,28.5224152 C21.3409424,29.0802384 22.709465,28.9144134 23.6582184,28.0588532 L31.5296936,25.4350281 C32.0415878,25.2641296 32.6490784,25.4865646 32.8648376,25.9917831 C33.0912781,26.5194321 32.840004,27.1181107 32.3291779,27.3370743 L32.3291779,27.3370743 Z" id="Shape"></path>
                                <path d="M22.6245499,7.31445312 C22.6245499,7.8805542 22.1655273,8.33984375 21.5991593,8.33984375 C21.0327912,8.33984375 20.5737686,7.8805542 20.5737686,7.31445312 C20.5737686,6.74808504 21.0327912,6.2890625 21.5991593,6.2890625 C22.1655273,6.2890625 22.6245499,6.74808504 22.6245499,7.31445312 Z" id="Path"></path>
                                <path d="M26.7258454,11.4157486 C26.7258454,11.9821167 26.2668228,12.4411392 25.7007218,12.4411392 C25.1343537,12.4411392 24.6753311,11.9821167 24.6753311,11.4157486 C24.6753311,10.8496475 25.1343537,10.390358 25.7007218,10.390358 C26.2668228,10.390358 26.7258454,10.8496475 26.7258454,11.4157486 L26.7258454,11.4157486 Z" id="Path"></path>
                                <path d="M26.4275741,6.58920288 C26.027298,6.18892668 25.3778839,6.18892668 24.9776077,6.58920288 L20.8760452,10.6907654 C20.475502,11.0913086 20.475502,11.7404556 20.8760452,12.1407318 C21.2763214,12.5412751 21.9257355,12.5412751 22.3260116,12.1407318 L26.4275741,8.03943636 C26.8281174,7.63889314 26.8281174,6.98974609 26.4275741,6.58920288 Z" id="Path"></path>
                                <path d="M12.7575684,12.216568 L23.0112076,20.4194259 C23.1983948,20.5692292 23.4251022,20.6442642 23.6518097,20.6442642 C23.8774491,20.6442642 24.1030884,20.5700302 24.2897415,20.4215622 L34.6117401,12.2187043 C34.9532699,11.9471359 35.0857162,11.4897156 34.9420548,11.0779572 C34.7983932,10.6661987 34.4098664,10.390358 33.9738083,10.390358 L30.8295441,10.390358 L30.8295441,1.02539063 C30.8295441,0.459022539 30.3702546,1.94289029e-15 29.8041535,1.94289029e-15 L17.499733,1.94289029e-15 C16.9333649,1.94289029e-15 16.4743424,0.459022539 16.4743424,1.02539063 L16.4743424,10.390358 L13.3981705,10.390358 C12.9626465,10.390358 12.5746536,10.6653976 12.4307251,11.076355 C12.2865295,11.4873123 12.4176407,11.9444657 12.7575684,12.216568 Z M17.499733,12.4411392 C18.0658341,12.4411392 18.5251236,11.9821167 18.5251236,11.4157486 L18.5251236,2.05078125 L28.7787629,2.05078125 L28.7787629,11.4157486 C28.7787629,11.9821167 29.2377853,12.4411392 29.8041535,12.4411392 L31.0356903,12.4411392 L23.653946,18.3072281 L16.3213348,12.4411392 L17.499733,12.4411392 Z" id="Shape"></path>
                            </g>
                        </g>
                    </g>
                </g>
            </g>
        </g>
    </g>
</svg>