<?xml version="1.0" encoding="UTF-8"?>
<svg width="35px" height="35px" viewBox="0 0 35 35" version="1.1" xmlns="http://www.w3.org/2000/svg" xmlns:xlink="http://www.w3.org/1999/xlink">
    <!-- Generator: Sketch 63.1 (92452) - https://sketch.com -->
    <title>money</title>
    <desc>Created with Sketch.</desc>
    <g id="Page-3" stroke="none" stroke-width="1" fill="none" fill-rule="evenodd">
        <g id="Home" transform="translate(-787.000000, -1160.000000)" fill="#81AF85" fill-rule="nonzero">
            <g id="FEATURES" transform="translate(-145.000000, 1049.000000)">
                <g id="Group-6" transform="translate(552.000000, 111.000000)">
                    <g id="LIST" transform="translate(378.000000, 0.000000)">
                        <g id="1">
                            <g id="money" transform="translate(2.000000, 0.000000)">
                                <path d="M5.81546875,31.0987988 C5.68838867,30.971582 5.51202148,30.8985059 5.33223633,30.8985059 C5.15245117,30.8985059 4.97608398,30.971582 4.84893555,31.0987988 C4.72178711,31.2260156 4.64864258,31.4023145 4.64864258,31.5820996 C4.64864258,31.7618848 4.72171875,31.938252 4.84893555,32.065332 C4.97608398,32.1924805 5.15245117,32.2656934 5.33223633,32.2656934 C5.51202148,32.2656934 5.68838867,32.1925488 5.81546875,32.065332 C5.94261719,31.938252 6.01583008,31.7618848 6.01583008,31.5820996 C6.01583008,31.4023145 5.94268555,31.2259473 5.81546875,31.0987988 Z" id="Path"></path>
                                <path d="M32.0963672,12.5055273 C31.9692187,12.3783105 31.7935352,12.3052344 31.6130664,12.3052344 C31.4332813,12.3052344 31.2569141,12.3783105 31.1297656,12.5055273 C31.0026855,12.6326758 30.9294727,12.809043 30.9294727,12.9888281 C30.9294727,13.1686133 31.0026172,13.3449805 31.1297656,13.4720605 C31.2569141,13.599209 31.4332813,13.6724219 31.6130664,13.6724219 C31.7935352,13.6724219 31.9692187,13.5992773 32.0963672,13.4720605 C32.2241309,13.3449805 32.2972754,13.1686133 32.2972754,12.9888281 C32.2972754,12.809043 32.2241309,12.6326758 32.0963672,12.5055273 Z" id="Path"></path>
                                <path d="M34.7993652,0.200224609 C34.671123,0.0720507813 34.4972168,0 34.3158594,0 L17.4998633,0.000888671875 C17.1223828,0.000888671875 16.8163379,0.307001953 16.8163379,0.684482422 L16.8163379,2.63935547 L10.3366211,4.37561523 C9.97192383,4.47336914 9.75549805,4.84818359 9.85325195,5.2128125 L13.211543,17.745957 L10.3063379,20.6511621 C9.93658203,20.1112598 9.31574219,19.7562012 8.61348633,19.7562012 L2.05119141,19.7562012 C0.920390625,19.7562012 0.000478515625,20.6761816 0.000478515625,21.8069141 L0.000478515625,32.9492188 C0.000478515625,34.0800195 0.920390625,35.0000684 2.05119141,35.0000684 L8.61355469,35.0000684 C9.57420898,35.0000684 10.3823535,34.3358203 10.6038379,33.4427734 L11.4166309,34.1515918 C12.0441016,34.6987402 12.8480078,35.0000684 13.6805566,35.0000684 L34.3159961,35.0000684 C34.6934766,35.0000684 34.9995898,34.6939551 34.9995898,34.3164746 L34.9995898,0.68359375 C34.9995898,0.502304688 34.9275391,0.328398438 34.7993652,0.200224609 Z M9.29708008,32.9492871 C9.29708008,33.3261523 8.99035156,33.6328809 8.61341797,33.6328809 L2.05112305,33.6328809 C1.67418945,33.6328809 1.3675293,33.3262207 1.3675293,32.9492871 L1.3675293,21.8069824 C1.3675293,21.4300488 1.67418945,21.1233887 2.05112305,21.1233887 L4.64871094,21.1233887 L4.64871094,28.9980469 C4.64871094,29.3755273 4.95482422,29.6816406 5.33230469,29.6816406 C5.70978516,29.6816406 6.01589844,29.3755273 6.01589844,28.9980469 L6.01589844,21.1233887 L8.61348633,21.1233887 C8.99041992,21.1233887 9.29708008,21.4300488 9.29708008,21.8069824 L9.29708008,32.9492871 L9.29708008,32.9492871 Z M11.3507324,5.51926758 L16.8163379,4.05473633 L16.8163379,6.58779297 L16.3581934,6.71056641 C16.1829883,6.7575293 16.0337598,6.87203125 15.9431152,7.02905273 C15.8524707,7.18607422 15.8278613,7.37262695 15.8748242,7.54776367 C16.1375293,8.52810547 15.5536719,9.5393457 14.5733301,9.80205078 C14.3979883,9.84908203 14.2484863,9.96378906 14.1579102,10.1211523 C14.067334,10.2784473 14.0429297,10.4653418 14.0903027,10.6406152 L16.7548828,20.5074707 L15.3829102,20.5074707 L14.6758691,17.741377 C14.6533789,17.6533301 14.6140039,17.5721875 14.5612988,17.5016406 L11.3507324,5.51926758 Z M16.8163379,9.72268555 L16.8163379,15.490918 L15.5695312,10.8742676 C16.0903613,10.6053418 16.516582,10.2029785 16.8163379,9.72268555 Z M26.6371191,33.6328125 L13.6804199,33.6328125 L13.6804199,33.6328125 C13.1783203,33.6328125 12.6934473,33.4511133 12.3150098,33.1211426 L10.6641992,31.6814258 L10.6641992,22.2268457 L13.6486328,19.2424121 L14.1899023,21.3601855 C14.2672852,21.6628125 14.539834,21.8744531 14.852168,21.8744531 L28.2918945,21.8752734 C28.8196289,21.8752734 29.2489258,22.3045703 29.2489258,22.8323047 C29.2489258,23.3600391 28.8196289,23.7893359 28.2918945,23.7893359 L21.4053711,23.7893359 C21.0278906,23.7893359 20.7217773,24.0954492 20.7217773,24.4729297 C20.7217773,24.8504102 21.0278906,25.1565234 21.4053711,25.1565234 L30.431543,25.1565234 C30.9592773,25.1565234 31.3885742,25.5858203 31.3885742,26.1135547 C31.3885742,26.6412891 30.9592773,27.0705859 30.431543,27.0705859 L21.4053711,27.0705859 C21.0278906,27.0705859 20.7217773,27.3766992 20.7217773,27.7541797 C20.7217773,28.1316602 21.0278906,28.4377734 21.4053711,28.4377734 L28.9688574,28.4377734 C29.4965918,28.4377734 29.9258887,28.8670703 29.9258887,29.3948047 C29.9258887,29.9225391 29.4965918,30.3518359 28.9688574,30.3518359 L21.4053711,30.3518359 C21.0278906,30.3518359 20.7217773,30.6579492 20.7217773,31.0354297 C20.7217773,31.4129102 21.0278906,31.7190234 21.4053711,31.7190234 L26.6371191,31.7190234 C27.1648535,31.7190234 27.5941504,32.1483203 27.5941504,32.6760547 C27.594082,33.2035156 27.1647852,33.6328125 26.6371191,33.6328125 Z M33.6324023,33.6328125 L33.6324023,33.6328125 L28.7542773,33.6328125 C28.8868262,33.3407129 28.9612695,33.0168945 28.9612695,32.6757812 C28.9612695,32.334668 28.8868262,32.0108496 28.7542773,31.71875 L28.9688574,31.71875 C30.2503906,31.71875 31.2930078,30.6761328 31.2930078,29.3945996 C31.2930078,29.0208105 31.2037988,28.6675977 31.0462988,28.354375 C32.0304004,28.084082 32.755625,27.1820801 32.755625,26.113418 C32.755625,25.5949805 32.5848633,25.1157129 32.2968652,24.7287988 L32.2968652,16.0649316 C32.2968652,15.6874512 31.990752,15.3813379 31.6132715,15.3813379 C31.235791,15.3813379 30.9296777,15.6874512 30.9296777,16.0649316 L30.9296777,23.8436816 C30.7690332,23.8084766 30.6024414,23.7893359 30.4314063,23.7893359 L30.4089844,23.7893359 C30.5415332,23.4972363 30.6159766,23.173418 30.6159766,22.8323047 C30.6159766,21.5507031 29.5733594,20.5081543 28.2918262,20.5081543 L27.1929492,20.5081543 C28.3597754,20.0077637 29.1792676,18.8479785 29.1792676,17.5 C29.1792676,15.6960645 27.7117285,14.228457 25.907793,14.228457 C24.1039258,14.228457 22.6363184,15.6960645 22.6363184,17.5 C22.6363184,18.8479785 23.4558789,20.0077637 24.6226367,20.5081543 L20.8859082,20.5081543 L20.8859082,7.51016602 C22.1070801,7.24404297 23.0706738,6.28051758 23.3367285,5.05927734 L28.4787891,5.05927734 C28.7448438,6.28051758 29.7084375,7.24404297 30.9296094,7.51016602 L30.9296094,9.63545898 C30.9296094,10.0129395 31.2357227,10.3190527 31.6132031,10.3190527 C31.9906836,10.3190527 32.2967969,10.0129395 32.2967969,9.63545898 L32.2967969,6.89985352 C32.2967969,6.52237305 31.9906836,6.21625977 31.6132031,6.21625977 C30.5982715,6.21625977 29.7726953,5.39054687 29.7726953,4.37568359 C29.7726953,3.99820313 29.466582,3.69208984 29.0891016,3.69208984 L22.7264844,3.69208984 C22.3490039,3.69208984 22.0428906,3.99820313 22.0428906,4.37568359 C22.0428906,5.39061523 21.2172461,6.21625977 20.2023828,6.21625977 C19.8249023,6.21625977 19.5187891,6.52237305 19.5187891,6.89985352 L19.5187891,20.5080859 L18.1835937,20.5080859 L18.1835937,1.36793945 L33.6324023,1.3671875 L33.6324023,33.6328125 Z M25.9079297,19.4043555 C24.8578613,19.4043555 24.0036426,18.5500684 24.0036426,17.5000684 C24.0036426,16.4500684 24.8579297,15.5957129 25.9079297,15.5957129 C26.9579297,15.5957129 27.8122168,16.45 27.8122168,17.5 C27.8122168,18.55 26.957998,19.4043555 25.9079297,19.4043555 Z" id="Shape"></path>
                            </g>
                        </g>
                    </g>
                </g>
            </g>
        </g>
    </g>
</svg>