<?xml version="1.0" encoding="UTF-8"?>
<svg width="25px" height="25px" viewBox="0 0 25 25" version="1.1" xmlns="http://www.w3.org/2000/svg" xmlns:xlink="http://www.w3.org/1999/xlink">
    <!-- Generator: Sketch 63.1 (92452) - https://sketch.com -->
    <title>phone</title>
    <desc>Created with Sketch.</desc>
    <g id="Page-3" stroke="none" stroke-width="1" fill="none" fill-rule="evenodd">
        <g id="Home" transform="translate(-1263.000000, -5250.000000)" fill="#81AF85" fill-rule="nonzero">
            <g id="FOOTER" transform="translate(398.000000, 5108.000000)">
                <g id="4" transform="translate(865.000000, 136.000000)">
                    <g id="phone" transform="translate(0.000000, 6.000000)">
                        <path d="M24.5138845,19.8790112 L21.7423798,18.0311817 L19.2785868,16.388965 C18.8031034,16.0726114 18.1640962,16.1763211 17.8130745,16.6269016 L16.2885296,18.5867903 C15.9610427,19.0120782 15.3719374,19.1342935 14.9023133,18.8742869 C13.8678513,18.2988543 12.6445729,17.7570639 9.9454795,15.0545084 C7.24638613,12.3519528 6.70112806,11.1321432 6.12569451,10.0976829 C5.86568742,9.62805961 5.98790296,9.03895533 6.41319156,8.71151784 L8.37308354,7.18697553 C8.82361602,6.83600317 8.92737472,6.19699714 8.61102055,5.72146572 L7.01924002,3.33355484 L5.12096851,0.486127973 C4.79787612,0.00146580339 4.15110542,-0.144040268 3.65159883,0.155516695 L1.46236351,1.46887989 C0.870719197,1.8174597 0.435811555,2.38034359 0.247727549,3.04083373 C-0.350947942,5.22357129 -0.471649827,10.0386016 7.24506778,17.7553061 C14.9617854,25.4720107 19.7763844,25.3509184 21.9591256,24.7521951 C22.6196169,24.5641602 23.1825017,24.1292533 23.5310821,23.5375612 L24.8444475,21.3483784 C25.1440538,20.8488238 24.9985475,20.202103 24.5138845,19.8790112 Z" id="Path"></path>
                        <path d="M14.3055272,4.5370276 C18.2157067,4.54137004 21.3845087,7.71012485 21.3888511,11.6203515 C21.3888511,11.8504537 21.5753873,12.037037 21.8055367,12.037037 C22.0356389,12.037037 22.2222222,11.8505009 22.2222222,11.6203515 C22.2174078,7.2501093 18.6758166,3.70851815 14.3055744,3.7037037 C14.0754723,3.7037037 13.8888889,3.89023987 13.8888889,4.12038925 C13.8888889,4.35044423 14.0753779,4.5370276 14.3055272,4.5370276 Z" id="Path"></path>
                        <path d="M14.2857303,7.27516438 C16.6953239,7.2779964 18.6479295,9.23064694 18.6507615,11.6401956 C18.6507615,11.8593395 18.8284142,12.037037 19.047603,12.037037 C19.2667469,12.037037 19.4444444,11.8593844 19.4444444,11.6401956 C19.4411629,8.79249406 17.1334768,6.48476302 14.2857303,6.48148148 C14.0665865,6.48148148 13.8888889,6.65913411 13.8888889,6.87832293 C13.8888889,7.09751175 14.0665415,7.27516438 14.2857303,7.27516438 Z" id="Path"></path>
                        <path d="M14.3518191,9.25924615 C15.6296365,9.26076705 16.6651064,10.296237 16.6666273,11.5740544 C16.6666273,11.8297228 16.8738892,12.037037 17.12961,12.037037 C17.3852783,12.037037 17.5925926,11.8297752 17.5925926,11.5740544 C17.5905472,9.78511008 16.1408158,8.33537868 14.3518715,8.33333333 C14.0962032,8.33333333 13.8888889,8.54059515 13.8888889,8.79631596 C13.8888365,9.05198433 14.0960983,9.25924615 14.3518191,9.25924615 Z" id="Path"></path>
                    </g>
                </g>
            </g>
        </g>
    </g>
</svg>