<?xml version="1.0" encoding="UTF-8"?>
<svg width="35px" height="35px" viewBox="0 0 35 35" version="1.1" xmlns="http://www.w3.org/2000/svg" xmlns:xlink="http://www.w3.org/1999/xlink">
    <!-- Generator: Sketch 63.1 (92452) - https://sketch.com -->
    <title>search (2)</title>
    <desc>Created with Sketch.</desc>
    <g id="Page-3" stroke="none" stroke-width="1" fill="none" fill-rule="evenodd">
        <g id="Home" transform="translate(-407.000000, -1413.000000)" fill="#81AF85" fill-rule="nonzero">
            <g id="FEATURES" transform="translate(-145.000000, 1049.000000)">
                <g id="Group-6" transform="translate(552.000000, 363.000000)">
                    <g id="LIST" transform="translate(0.000000, 1.000000)">
                        <g id="1">
                            <g id="search-(2)">
                                <path d="M6.20307926,12.3548889 C5.8257675,12.3548889 5.51948551,12.660904 5.51948551,13.0382157 C5.51948551,13.4155273 5.8257675,13.7218094 6.20307926,13.7218094 C6.58039095,13.7218094 6.88667301,13.4155273 6.88667301,13.0382157 C6.88667301,12.660904 6.58039095,12.3548889 6.20307926,12.3548889 Z" id="Path"></path>
                                <path d="M25.3559875,20.5227661 C25.2280807,20.3945923 25.0539779,20.3224945 24.8726654,20.3224945 C24.8657227,20.3238297 24.6029663,20.3091431 24.3893433,20.5227661 L23.9062882,21.0058212 L22.3356247,19.4354248 C25.8016586,14.5768356 25.2745438,7.87467953 21.0060882,3.60649105 C16.1979675,-1.20162964 8.41514584,-1.20243074 3.60649105,3.60649105 C-1.20162964,8.4143448 -1.20243074,16.1974334 3.60649105,21.0060882 C7.86426546,25.2641296 14.5637512,25.8104705 19.4351578,22.3356247 L21.0058212,23.9062882 L20.5227661,24.3893433 C20.2560043,24.6561051 20.2557373,25.0892258 20.5227661,25.3562546 L29.1648865,33.9975739 C30.5002975,35.333786 32.6618958,35.3345871 33.9975739,33.9978409 C35.333786,32.6626969 35.3343201,30.5008316 33.9975739,29.1651535 L25.3559875,20.5227661 Z M21.9724655,22.9396439 L20.5088806,21.4760589 C20.6789779,21.3235855 20.8453369,21.1671066 21.0060882,21.0060882 C21.1671066,20.8453369 21.3235855,20.6789779 21.4760589,20.5091476 L22.9396439,21.9727326 L21.9724655,22.9396439 Z M4.57313541,20.039444 C0.299072266,15.7656479 0.298538242,8.8474655 4.57313541,4.57313541 C8.84693147,0.299072266 15.7651138,0.298538242 20.039444,4.57313541 C24.303894,8.83731844 24.3255234,15.7538986 20.039444,20.039444 C15.7050324,24.3743896 8.78871916,24.2552948 4.57313541,20.039444 Z M24.8726654,21.9727326 L26.8056869,23.9060212 L23.9060212,26.8056869 L21.9727326,24.8726654 L24.8726654,21.9727326 Z M33.0309295,33.0311966 C32.2298431,33.8330841 30.9334183,33.8333512 30.1317978,33.0311966 L24.8726654,27.7723312 L27.7723312,24.8726654 L33.0311966,30.1320648 C33.8328171,30.9328842 33.8336182,32.2293091 33.0309295,33.0311966 L33.0309295,33.0311966 Z" id="Shape"></path>
                                <path d="M19.0730667,5.54004671 C15.3349304,1.8019104 9.27898405,1.79977417 5.53924561,5.53951262 C1.80885318,9.27070621 1.80885318,15.3418732 5.53924561,19.0733337 C9.27951814,22.8133392 15.3319931,22.8136063 19.0725326,19.0733337 C22.8037262,15.3418732 22.8039932,9.27097322 19.0730667,5.54004671 Z M18.1058883,18.1064224 C14.9002075,21.3121033 9.71237183,21.3129044 6.50588989,18.1066895 C3.30848697,14.9082184 3.30848697,9.704361 6.50588989,6.50588989 C9.70996858,3.30207828 14.9012756,3.30127718 18.1064224,6.506691 C21.3043595,9.70462801 21.3040924,14.9082184 18.1058883,18.1064224 Z" id="Shape"></path>
                                <path d="M12.3062897,5.47168733 C10.4792786,5.47168733 8.76281738,6.18251799 7.4730682,7.4730682 C6.72538754,8.22074887 6.17504118,9.10408023 5.83751677,10.0990295 C5.71628572,10.4563141 5.90747835,10.844574 6.26502994,10.965805 C6.62311556,11.0873031 7.01084139,10.8950424 7.13207243,10.5382919 C7.40150455,9.74388119 7.84156803,9.03785709 8.43971256,8.43944548 C9.47151187,7.40737915 10.844574,6.83887483 12.3062897,6.83887483 C12.6838684,6.83887483 12.9898835,6.53285979 12.9898835,6.15528108 C12.9898835,5.77770231 12.6838684,5.47168733 12.3062897,5.47168733 Z" id="Path"></path>
                            </g>
                        </g>
                    </g>
                </g>
            </g>
        </g>
    </g>
</svg>