<?xml version="1.0" encoding="UTF-8"?>
<svg width="28px" height="33px" viewBox="0 0 28 33" version="1.1" xmlns="http://www.w3.org/2000/svg" xmlns:xlink="http://www.w3.org/1999/xlink">
    <!-- Generator: Sketch 63.1 (92452) - https://sketch.com -->
    <title>shield</title>
    <desc>Created with Sketch.</desc>
    <g id="Page-3" stroke="none" stroke-width="1" fill="none" fill-rule="evenodd">
        <g id="Home" transform="translate(-1166.000000, -1160.000000)" fill="#81AF85" fill-rule="nonzero">
            <g id="FEATURES" transform="translate(-145.000000, 1049.000000)">
                <g id="Group-6" transform="translate(552.000000, 111.000000)">
                    <g id="LIST" transform="translate(759.000000, 0.000000)">
                        <g id="1">
                            <g id="shield">
                                <path d="M27.9673715,8.95374308 L27.9663681,8.92806256 C27.952069,8.61108469 27.9425362,8.27572773 27.9367664,7.90260524 C27.9099241,6.08306676 26.4687202,4.57798849 24.6554875,4.47627359 C20.8749927,4.26453536 17.95044,3.02733988 15.4516006,0.582909438 L15.4302774,0.562516057 C14.6152258,-0.187505352 13.3857497,-0.187505352 12.5704472,0.562516057 L12.5491239,0.582909438 C10.0502846,3.02733988 7.12573186,4.26453536 3.34523706,4.47652535 C1.53225522,4.57798849 0.0908004288,6.08306676 0.0639582111,7.90285699 C0.0584392084,8.27346175 0.0486555628,8.60881878 0.0343564278,8.92806256 L0.0328512862,8.98773192 C-0.040651351,12.8566744 -0.131965292,17.6717669 1.47305172,22.0422343 C2.35558532,24.4456264 3.69217964,26.53481 5.44545622,28.2521301 C7.44232011,30.2078758 10.0578104,31.7605385 13.2191771,32.8668139 C13.3220306,32.902817 13.428898,32.9320222 13.5377722,32.9539262 C13.6912999,32.9846421 13.8458311,33 14.0003623,33 C14.1548934,33 14.3096755,32.9846421 14.4629523,32.9539262 C14.5718266,32.9320222 14.6794465,32.9025652 14.7828018,32.8663104 C17.9404055,31.7580209 20.5531363,30.2046028 22.5482442,28.2491088 C24.3007682,26.5312852 25.6373625,24.4415981 26.5206487,22.0377025 C28.1316864,17.654143 28.0406233,12.8299869 27.9673715,8.95374308 Z M24.7104264,21.3677438 C23.0176075,25.9741193 19.5619794,29.1376035 14.1461133,31.0384635 C14.1267969,31.0450095 14.1062262,31.0508002 14.0849028,31.0550803 C14.0289606,31.0661582 13.9720148,31.0661582 13.91532,31.0548285 C13.8942475,31.0505484 13.8736768,31.0450095 13.8546113,31.0384635 C8.43297531,29.1411283 4.9750894,25.9794064 3.28352491,21.3727791 C1.80418995,17.3442147 1.88797799,12.9241487 1.96198232,9.02474206 L1.96248408,9.00308991 C1.97753582,8.66798464 1.98757031,8.31701787 1.99308925,7.931307 C2.00513064,7.1233785 2.64633467,6.45493042 3.45285697,6.40986366 C5.59221065,6.29002136 7.47167098,5.87510516 9.19860704,5.14144869 C10.9232853,4.40879936 12.4550505,3.37604068 13.8809518,1.98425866 C13.9534511,1.92282689 14.0475244,1.92257514 14.1197727,1.98425866 C15.5459249,3.37604068 17.0776901,4.40879936 18.8021175,5.14144869 C20.5290535,5.87510516 22.4085139,6.29002136 24.5481185,6.40986366 C25.3546408,6.45493042 25.9958447,7.1233785 26.0076353,7.93155875 C26.0134051,8.31928384 26.0234396,8.67025055 26.0384914,9.00308991 C26.1122448,12.9070284 26.194026,17.3306192 24.7104264,21.3677438 Z" id="Shape"></path>
                                <path d="M13.5,8 C8.81296494,8 5,11.8131668 5,16.4998699 C5,21.1868332 8.81296494,25 13.5,25 C18.1867748,25 22,21.1868332 22,16.4998699 C22,11.8131668 18.1867748,8 13.5,8 Z M13.5,22.9984387 C9.91654674,22.9984387 7.00133165,20.0832683 7.00133165,16.4998699 C7.00133165,12.9164715 9.91654674,10.0013011 13.5,10.0013011 C17.083193,10.0013011 19.9984081,12.9164715 19.9984081,16.4998699 C19.9984081,20.0832683 17.083193,22.9984387 13.5,22.9984387 Z" id="Shape"></path>
                                <path d="M16.3800491,14.2643722 L12.6361295,17.8226378 L11.619951,16.8568497 C11.2493099,16.5045879 10.6484369,16.5045879 10.2777958,16.8568497 C9.90740141,17.2091114 9.90740141,17.7801882 10.2777958,18.1322154 L11.9651753,19.735921 C12.1504959,19.9120519 12.3933127,20 12.6361295,20 C12.8789463,20 13.1217632,19.9120519 13.3070837,19.735921 L17.7222042,15.5397379 C18.0925986,15.1874762 18.0925986,14.6163994 17.7222042,14.2643722 C17.3515631,13.9118759 16.7506902,13.9118759 16.3800491,14.2643722 Z" id="Path"></path>
                            </g>
                        </g>
                    </g>
                </g>
            </g>
        </g>
    </g>
</svg>