<?xml version="1.0" encoding="UTF-8"?>
<svg width="36px" height="35px" viewBox="0 0 36 35" version="1.1" xmlns="http://www.w3.org/2000/svg" xmlns:xlink="http://www.w3.org/1999/xlink">
    <!-- Generator: Sketch 63.1 (92452) - https://sketch.com -->
    <title>support</title>
    <desc>Created with Sketch.</desc>
    <g id="Page-3" stroke="none" stroke-width="1" fill="none" fill-rule="evenodd">
        <g id="Home" transform="translate(-787.000000, -1413.000000)" fill="#81AF85" fill-rule="nonzero">
            <g id="FEATURES" transform="translate(-145.000000, 1049.000000)">
                <g id="Group-6" transform="translate(552.000000, 363.000000)">
                    <g id="LIST" transform="translate(378.000000, 1.000000)">
                        <g id="1">
                            <g id="support" transform="translate(2.000000, 0.000000)">
                                <path d="M34.6476498,16.3614879 C34.1164625,15.8714528 33.3938638,15.5687681 32.665038,15.5308648 C31.8373931,15.4880883 31.0620005,15.7831923 30.4845171,16.3609465 L26.5387867,20.265254 C26.4608142,20.1301559 26.3717416,20.0026385 26.2718394,19.8843261 C25.7864067,19.3079257 25.0765327,18.9906212 24.2732541,18.9906212 L18.7496647,18.9906212 C17.708137,18.9906212 16.6920586,18.8555231 15.729857,18.589388 C13.221202,17.8954874 10.8246325,18.4023083 8.79870266,20.0559738 C7.974848,20.7284861 7.37381043,21.4600192 6.99369478,21.9933724 L6.00333652,21.0322537 C5.87311166,20.9058192 5.69659072,20.8340738 5.51492574,20.8340738 C5.51330135,20.8340738 5.51194768,20.8340738 5.51032322,20.8340738 C5.32216054,20.8354275 5.14022485,20.9136707 5.00972934,21.0490395 L0.195201823,26.0471271 C0.0663307051,26.1808715 -0.003790327,26.3606413 0.000103678965,26.5463673 C0.00433180228,26.7323641 0.082033523,26.908885 0.216590114,27.0369439 L8.35956617,34.7905993 C8.49466427,34.9191996 8.66793636,34.9833645 8.84093773,34.9833645 C9.02260271,34.9833645 9.20426762,34.9127019 9.34099018,34.7724599 L14.1105752,29.8791477 C14.2408,29.7454033 14.313087,29.5626554 14.3095674,29.3758464 C14.3060478,29.1917448 14.2288875,29.014141 14.0967676,28.8858113 L13.6814561,28.4829537 L14.6320159,28.3760123 C15.2070626,28.3091401 15.7918559,28.2752979 16.370693,28.2752979 L24.7746602,28.2752979 C26.1402609,28.2752979 27.3001009,27.9766743 28.2222333,27.3875492 C28.229814,27.3826759 28.2373946,27.3775319 28.2449753,27.3723879 C28.5752752,27.1428024 28.8749818,26.870711 29.1354314,26.5639653 L34.7987214,19.9013826 C35.7679621,18.7613064 35.7073169,17.3385801 34.6476498,16.3614879 Z M8.82279829,33.3039789 L1.68777843,26.5100885 L5.53144079,22.5196864 L12.624767,29.4031909 L8.82279829,33.3039789 Z M33.7349932,18.9971189 L28.0717032,25.6599722 C27.8919334,25.8714184 27.685902,26.0593103 27.4587532,26.218504 C26.766477,26.6568283 25.863567,26.8793746 24.7746602,26.8793746 L16.3704223,26.8793746 C15.7382499,26.8793746 15.0990383,26.9164657 14.4733636,26.9892941 L12.3838105,27.2237529 L8.00869019,22.9780452 C8.31272858,22.527267 8.87180179,21.798712 9.6815781,21.1375707 C11.3650247,19.7633065 13.2748081,19.3585537 15.3575928,19.9349541 C16.4410848,20.2346607 17.582244,20.3868152 18.7496647,20.3868152 L24.2732541,20.3868152 C25.2652368,20.3868152 25.5300182,21.2461365 25.5300182,21.7537696 C25.5300182,22.1246801 25.4108936,22.477722 25.2032379,22.7224689 C24.9779842,22.987521 24.6577015,23.1218069 24.2513243,23.1218069 L19.4430238,23.1218069 C19.0574934,23.1218069 18.7450621,23.4345089 18.7450621,23.8200393 C18.7450621,24.2055697 19.0574934,24.5180009 19.4430238,24.5180009 L24.2513243,24.5180009 C25.0629958,24.5180009 25.7788261,24.2012379 26.2672368,23.6261911 C26.673614,23.1480684 26.9053654,22.5194156 26.9248585,21.8474448 L31.4691899,17.3507633 C32.1186894,16.7012637 33.1334142,16.8642477 33.701151,17.3878544 C33.9946306,17.658592 34.3893661,18.2274118 33.7349932,18.9971189 L33.7349932,18.9971189 Z" id="Shape"></path>
                                <path d="M17.2660224,23.6340425 C17.1780327,23.2585294 16.8025196,23.0259657 16.4270065,23.1136847 C16.0517641,23.2016745 15.818659,23.5771876 15.9069194,23.9527007 L15.9134171,23.9811281 C15.9889529,24.3027645 16.2756641,24.5198961 16.5924272,24.5198961 C16.645221,24.5198961 16.6988271,24.5139398 16.7524331,24.5014859 C17.1279462,24.4134962 17.3607806,24.0377123 17.2727909,23.66247 L17.2660224,23.6340425 Z" id="Path"></path>
                                <path d="M4.71841563,14.7627822 L11.5204282,14.7627822 C11.8907973,14.7627822 12.2335511,14.6425747 12.5124109,14.4395215 C12.7912707,14.6425747 13.1340245,14.7627822 13.5043936,14.7627822 L20.3066769,14.7627822 C20.677046,14.7627822 21.0197998,14.6425747 21.2986596,14.4395215 C21.5775194,14.6425747 21.9202732,14.7627822 22.2906423,14.7627822 L29.0926548,14.7627822 C30.0245338,14.7627822 30.7825992,14.0044461 30.7825992,13.0725671 L30.7825992,9.90060483 C30.7825992,8.47598339 29.9852768,7.23844161 28.7918653,6.62792821 C29.3701609,5.93050804 29.7183295,5.03599087 29.7183295,4.06133536 C29.7183295,1.84101597 27.911968,0.0346544182 25.6916486,0.0346544182 C23.4713292,0.0346544182 21.6649677,1.84101597 21.6649677,4.06133536 C21.6649677,5.03599087 22.0131362,5.93077876 22.5914318,6.62792821 C22.0756767,6.89216815 21.6341035,7.27363747 21.2986596,7.73632815 C20.9632157,7.27336675 20.5216426,6.89189743 20.0056166,6.62792821 C20.5839122,5.93077876 20.9320808,5.03599087 20.9320808,4.06133536 C20.9320808,1.84101597 19.1257193,0.0346544182 16.9053998,0.0346544182 C14.6850805,0.0346544182 12.8787189,1.84101597 12.8787189,4.06133536 C12.8787189,5.03599087 13.2271583,5.93077876 13.8054539,6.62819893 C13.289428,6.89216815 12.8478548,7.27363747 12.5124109,7.73659887 C12.1769669,7.27363747 11.7353938,6.89216815 11.2193679,6.62792821 C11.7976635,5.93077876 12.1458322,5.03599087 12.1458322,4.06160608 C12.1458322,1.84101597 10.3394706,0.0346544182 8.11915114,0.0346544182 C5.89910248,0.0346544182 4.09274092,1.84101597 4.09274092,4.06160608 C4.09274092,5.03599087 4.44090957,5.93077876 5.01920517,6.62819893 C3.82579364,7.23871233 3.02820051,8.47652483 3.02820051,9.90087555 L3.02820051,13.0725671 C3.02820051,14.0044461 3.78653663,14.7627822 4.71841563,14.7627822 Z M25.6919193,1.43084842 C27.1422609,1.43084842 28.3224063,2.6107231 28.3224063,4.06133536 C28.3224063,5.51167696 27.1422609,6.69182229 25.6919193,6.69182229 C24.241307,6.69182229 23.0614323,5.51194768 23.0614323,4.06133536 C23.0611617,2.6107231 24.241307,1.43084842 25.6919193,1.43084842 Z M23.8782478,7.65483607 C24.4237842,7.93125925 25.0397124,8.0880163 25.6916486,8.0880163 C26.3438556,8.0880163 26.9597837,7.93125925 27.5050493,7.65483607 C28.589895,7.84381098 29.3866759,8.77866804 29.3866759,9.90060483 L29.3866759,13.0725671 C29.3866759,13.2347389 29.2548267,13.3665882 29.0926548,13.3665882 L22.2906423,13.3665882 C22.1287412,13.3665882 21.9968919,13.2347389 21.9968919,13.0725671 L21.9968919,9.90060483 C21.9966213,8.77893876 22.7936729,7.84381098 23.8782478,7.65483607 Z M16.9056706,1.43084842 C18.3560122,1.43084842 19.5361576,2.6107231 19.5361576,4.06133536 C19.5361576,5.51167696 18.3560122,6.69182229 16.9056706,6.69182229 C15.4550583,6.69182229 14.2751837,5.51194768 14.2751837,4.06133536 C14.2751837,2.6107231 15.4550583,1.43084842 16.9056706,1.43084842 Z M15.0922699,7.65483607 C15.6375355,7.93125925 16.2534636,8.0880163 16.9056706,8.0880163 C17.5578776,8.0880163 18.173535,7.93125925 18.7190713,7.65483607 C19.8036464,7.84381098 20.600698,8.77866804 20.600698,9.90060483 L20.600698,13.0725671 C20.600698,13.2347389 20.4688487,13.3665882 20.3066769,13.3665882 L13.5046643,13.3665882 C13.3424925,13.3665882 13.2106433,13.2347389 13.2106433,13.0725671 L13.2106433,9.90060483 C13.2106433,8.77893876 14.0076949,7.84381098 15.0922699,7.65483607 Z M8.11942193,1.43084842 C9.56976347,1.43084842 10.7499088,2.6107231 10.7499088,4.06133536 C10.7499088,5.51167696 9.56976347,6.69182229 8.11942193,6.69182229 C6.66908033,6.69182229 5.48893493,5.51167696 5.48893493,4.06133536 C5.48893493,2.6107231 6.66908033,1.43084842 8.11942193,1.43084842 Z M4.42439459,9.90060483 C4.42439459,8.77893876 5.22144621,7.84381098 6.30602117,7.65483607 C6.85155754,7.93125925 7.4672149,8.0880163 8.11942193,8.0880163 C8.7716289,8.0880163 9.38728626,7.93125925 9.93282263,7.65483607 C11.0176684,7.84381098 11.8144493,8.77866804 11.8144493,9.90060483 L11.8144493,13.0725671 C11.8144493,13.2347389 11.6826,13.3665882 11.5204282,13.3665882 L4.71841563,13.3665882 C4.55624377,13.3665882 4.42439459,13.2347389 4.42439459,13.0725671 L4.42439459,9.90060483 Z" id="Shape"></path>
                            </g>
                        </g>
                    </g>
                </g>
            </g>
        </g>
    </g>
</svg>