<?xml version="1.0" encoding="UTF-8"?>
<svg width="35px" height="35px" viewBox="0 0 35 35" version="1.1" xmlns="http://www.w3.org/2000/svg" xmlns:xlink="http://www.w3.org/1999/xlink">
    <!-- Generator: Sketch 63.1 (92452) - https://sketch.com -->
    <title>wallet (2)</title>
    <desc>Created with Sketch.</desc>
    <g id="Page-3" stroke="none" stroke-width="1" fill="none" fill-rule="evenodd">
        <g id="Home" transform="translate(-407.000000, -1288.000000)" fill="#81AF85" fill-rule="nonzero">
            <g id="FEATURES" transform="translate(-145.000000, 1049.000000)">
                <g id="Group-6" transform="translate(552.000000, 232.000000)">
                    <g id="LIST" transform="translate(0.000000, 6.000000)">
                        <g id="1">
                            <g id="wallet-(2)" transform="translate(0.000000, 1.000000)">
                                <path d="M17.3368945,22.8245801 C16.3568945,22.8245801 15.5596191,23.6218555 15.5596191,24.6018555 C15.5596191,25.5818555 16.3569629,26.3791309 17.3368945,26.3791309 C18.3168262,26.3791309 19.1141699,25.5818555 19.1141699,24.6018555 C19.1141699,23.6218555 18.3169629,22.8245801 17.3368945,22.8245801 Z M17.3368945,25.0120117 C17.1106934,25.0120117 16.9267383,24.8280566 16.9267383,24.6018555 C16.9267383,24.3756543 17.1106934,24.1916992 17.3368945,24.1916992 C17.5630957,24.1916992 17.7470508,24.3756543 17.7470508,24.6018555 C17.7470508,24.8280566 17.5630957,25.0120117 17.3368945,25.0120117 Z" id="Shape"></path>
                                <path d="M22.8236914,20.559082 C22.696543,20.4319336 22.5201758,20.3587207 22.3403906,20.3587207 C22.1606055,20.3587207 21.9842383,20.4318652 21.8570898,20.559082 C21.7292578,20.6861621 21.6567969,20.8625293 21.6567969,21.0423145 C21.6567969,21.222168 21.7292578,21.3985352 21.8570898,21.5256152 C21.9842383,21.652832 22.1606055,21.7259082 22.3403906,21.7259082 C22.5201758,21.7259082 22.696543,21.652832 22.8236914,21.5256152 C22.9508398,21.3985352 23.0239844,21.222168 23.0239844,21.0423145 C23.0239844,20.8625293 22.9508398,20.6861621 22.8236914,20.559082 Z" id="Path"></path>
                                <path d="M31.5816211,9.84286133 L30.8446387,9.84286133 L21.202207,0.200429687 C20.9352637,-0.0665136719 20.5023438,-0.0665136719 20.2354688,0.200429687 L17.7652344,2.67073242 L7.88566406,0.023515625 C7.5209668,-0.0743066406 7.14608398,0.1421875 7.04839844,0.506884766 L4.54699219,9.84286133 L2.87150391,9.84286133 C1.2884375,9.84286133 0.000478515625,11.130752 0.000478515625,12.7138867 C0.000478515625,12.7518262 0.0019140625,12.7894922 0.00334960938,12.8270898 C0.00177734375,12.8458887 0.000478515625,12.8647559 0.000478515625,12.8839648 L0.000478515625,31.582168 C0.000478515625,33.4666992 1.5337793,35 3.41837891,35 L27.8902832,35 C27.9008789,35 27.9112695,34.9993164 27.9218652,34.9991797 L31.5815527,34.9991797 C33.4661523,34.9991797 34.9993848,33.4659473 34.9993848,31.5812793 L34.9993848,13.2606934 C34.9993848,11.3760254 33.4662207,9.84286133 31.5816211,9.84286133 Z M30.9708984,11.2099805 L31.5816211,11.2099805 C32.7124219,11.2099805 33.632334,12.1299609 33.632334,13.2606934 L33.632334,18.7392188 C33.632334,19.6326074 32.9054687,20.3594043 32.0121484,20.3594043 L31.3081836,20.3594043 L31.3081836,17.6355566 C31.3081836,15.7747461 29.8132324,14.2575781 27.961377,14.2194336 L30.9708984,11.2099805 Z M18.4529297,3.91651367 C18.452998,3.91644531 18.4530664,3.91630859 18.4531348,3.91624023 L20.7189062,1.65046875 L29.6579883,10.5895508 L26.0520312,14.1955762 L24.8014648,14.1955762 L26.437168,12.5597363 C26.7041113,12.292793 26.7041113,11.8599414 26.437168,11.592998 C25.8837988,11.0396289 25.8837988,10.1393359 26.437168,9.5859668 C26.7041113,9.31902344 26.7041113,8.88617188 26.437168,8.61916016 L22.6891602,4.87128906 C22.4222168,4.6043457 21.9893652,4.6043457 21.7223535,4.87128906 C21.1689844,5.42472656 20.268623,5.42472656 19.7153223,4.87128906 C19.4483789,4.6043457 19.015459,4.6043457 18.748584,4.87128906 L9.42436523,14.1955762 L8.17379883,14.1955762 L18.4529297,3.91651367 Z M16.4411816,11.6273145 C14.8806738,11.6273145 13.5732324,12.7291992 13.2543359,14.1955762 L11.3577051,14.1955762 L19.2919043,6.26137695 C20.1676563,6.78336914 21.2700195,6.78336914 22.1457715,6.26137695 L25.0470117,9.16261719 C24.5250879,10.0383008 24.5250879,11.1408008 25.0470117,12.0164844 L22.8679199,14.1955762 L19.6280273,14.1955762 C19.3091309,12.7291309 18.0017578,11.6273145 16.4411816,11.6273145 Z M18.2038965,14.1955762 L14.6787402,14.1955762 C14.9561426,13.4930469 15.6414453,12.994502 16.4413184,12.994502 C17.2411914,12.994502 17.9264258,13.4930469 18.2038965,14.1955762 Z M7.45130859,12.9845898 L9.26160156,6.22842773 C9.75795898,6.23642578 10.2517188,6.1096875 10.6939355,5.85422852 C11.1362207,5.59890625 11.4920996,5.23584961 11.7341602,4.80087891 L14.8106738,5.62522461 L10.3460547,10.0898438 L7.45130859,12.9845898 Z M8.19211914,1.52099609 L16.6489258,3.78697266 L15.9269824,4.50898437 L11.508916,3.32513672 C11.3337109,3.27817383 11.1471582,3.3027832 10.9902051,3.39342773 C10.8331836,3.48407227 10.7186133,3.63336914 10.6717188,3.80850586 C10.5735547,4.17463867 10.3387402,4.48068359 10.0104785,4.67024414 C9.68214844,4.85980469 9.29967773,4.91011719 8.93347656,4.81202148 C8.56891602,4.71426758 8.19396484,4.93069336 8.0962793,5.29539062 L5.70547852,14.2177246 L4.79000977,14.2177246 L8.19211914,1.52099609 Z M2.87150391,11.2099805 L4.18051758,11.2099805 L3.37456055,14.2177246 L2.87143555,14.2177246 C2.04216797,14.2177246 1.36759766,13.5430859 1.36759766,12.7138867 C1.36766602,11.8846191 2.04237305,11.2099805 2.87150391,11.2099805 Z M33.632334,31.5812793 C33.632334,32.7120801 32.7123535,33.6319922 31.5816211,33.6319922 L30.6233594,33.6319922 C31.0531348,33.0605078 31.3081836,32.3505957 31.3081836,31.5820996 L31.3081836,28.8356934 L31.7183398,28.8356934 C32.4322852,28.8356934 33.0931152,28.6058008 33.632334,28.2171094 L33.632334,31.5812793 L33.632334,31.5812793 Z M33.632334,25.5545801 C33.632334,26.6099805 32.7736719,27.4685742 31.7183398,27.4685742 L17.3632812,27.4685742 C15.7802148,27.4685742 14.4922559,26.1806836 14.4922559,24.5975488 C14.4922559,23.0144141 15.7801465,21.7265234 17.3632812,21.7265234 L19.4349805,21.7265234 C19.8125293,21.7265234 20.1185742,21.4204102 20.1185742,21.0429297 C20.1185742,20.6654492 19.8125293,20.3593359 19.4349805,20.3593359 L17.3632812,20.3593359 C15.0263477,20.3593359 13.1251367,22.2605469 13.1251367,24.5974805 C13.1251367,26.9344141 15.0263477,28.835625 17.3632812,28.835625 L29.9410645,28.835625 L29.9410645,31.5820312 C29.9410645,32.7022363 29.0381055,33.6157227 27.9219336,33.6327441 L4.6487793,33.6327441 L4.6487793,25.9348633 C4.6487793,25.5573828 4.34273438,25.2512695 3.96518555,25.2512695 C3.58763672,25.2512695 3.2815918,25.5573828 3.2815918,25.9348633 L3.2815918,33.6277539 C2.21436523,33.5571387 1.36759766,32.6668945 1.36759766,31.582168 L1.36759766,15.1581445 C1.80530273,15.4284375 2.32039063,15.5848438 2.87143555,15.5848438 L27.8902148,15.5848438 C29.0210156,15.5848438 29.9409277,16.5048242 29.9409277,17.6355566 L29.9409277,20.3594043 L24.9983398,20.3594043 C24.620791,20.3594043 24.3147461,20.6655176 24.3147461,21.042998 C24.3147461,21.4204785 24.620791,21.7265918 24.9983398,21.7265918 L32.0121484,21.7265918 C32.6091309,21.7265918 33.1653027,21.5498828 33.632334,21.2470508 L33.632334,25.5545801 Z" id="Shape"></path>
                                <path d="M4.44855469,22.7854102 C4.32140625,22.6583301 4.14503906,22.5851172 3.96525391,22.5851172 C3.78546875,22.5851172 3.60910156,22.6582617 3.48195312,22.7854102 C3.35480469,22.9125586 3.28166016,23.0889258 3.28166016,23.2687109 C3.28166016,23.4484961 3.35480469,23.6248633 3.48195312,23.7520117 C3.60910156,23.8791602 3.78546875,23.9523047 3.96525391,23.9523047 C4.14503906,23.9523047 4.32140625,23.8791602 4.44855469,23.7520117 C4.57570312,23.6248633 4.64884766,23.4484961 4.64884766,23.2687109 C4.6487793,23.0889258 4.57563477,22.9125586 4.44855469,22.7854102 Z" id="Path"></path>
                            </g>
                        </g>
                    </g>
                </g>
            </g>
        </g>
    </g>
</svg>